<svg id="Layer_1" data-name="Layer 1" xmlns="http://www.w3.org/2000/svg" viewBox="0 0 45 45"><defs><style>.cls-1,.cls-2{fill:none;stroke:#fff;stroke-miterlimit:10;}.cls-2{stroke-width:2px;}</style></defs><title>amssge</title><path class="cls-1" d="M24.73,19.88H22.85a6.53,6.53,0,0,0-5.31,2.73V9.25A1.25,1.25,0,0,0,16.29,8H15a1.25,1.25,0,0,0-1.25,1.25v22.5A1.25,1.25,0,0,0,15,33h1.25a1.25,1.25,0,0,0,1.25-1.25V30.26A6.54,6.54,0,0,0,22.85,33h1.88a6.56,6.56,0,0,0,0-13.12Z"/><circle class="cls-1" cx="23.54" cy="26.75" r="3.75"/><rect width="45" height="45"/><path class="cls-2" d="M31.64,31.15a12.31,12.31,0,1,0-18.71-7.37L8.87,31.45l8.71-.69A12.3,12.3,0,0,0,31.64,31.15Z"/></svg>