<?xml version="1.0" encoding="utf-8"?>
<!-- Generator: Adobe Illustrator 24.2.0, SVG Export Plug-In . SVG Version: 6.00 Build 0)  -->
<svg version="1.1" id="Layer_1" xmlns="http://www.w3.org/2000/svg" xmlns:xlink="http://www.w3.org/1999/xlink" x="0px" y="0px"
	 viewBox="0 0 45 45" style="enable-background:new 0 0 45 45;" xml:space="preserve">
<style type="text/css">
	.st0{fill:#FFFFFF;}
</style>
<path class="st0" d="M39.71,16.13H4.41c-0.93,0-1.69-0.76-1.69-1.69v0c0-0.93,0.76-1.69,1.69-1.69h35.31c0.93,0,1.69,0.76,1.69,1.69
	v0C41.41,15.37,40.64,16.13,39.71,16.13z"/>
<path class="st0" d="M24.03,23.44H4.41c-0.93,0-1.69-0.76-1.69-1.69v0c0-0.93,0.76-1.69,1.69-1.69h19.62c0.93,0,1.69,0.76,1.69,1.69
	v0C25.72,22.67,24.96,23.44,24.03,23.44z"/>
<path class="st0" d="M35.17,30.74H4.41c-0.93,0-1.69-0.76-1.69-1.69v0c0-0.93,0.76-1.69,1.69-1.69h30.76c0.93,0,1.69,0.76,1.69,1.69
	v0C36.86,29.98,36.1,30.74,35.17,30.74z"/>
</svg>
