<svg id="Layer_1" data-name="Layer 1" xmlns="http://www.w3.org/2000/svg" viewBox="0 0 81 86"><defs><style>.cls-1{fill:none;stroke:#000;stroke-linecap:round;stroke-linejoin:round;}</style></defs><title>Untitled-7</title><rect class="cls-1" x="0.5" y="0.5" width="80" height="85"/><circle class="cls-1" cx="40.5" cy="51.09" r="12.9"/><circle class="cls-1" cx="40.5" cy="51.09" r="8.41"/><polygon class="cls-1" points="40.9 32.63 54.22 9.56 27.58 9.56 40.9 32.63"/><polygon class="cls-1" points="40.9 37.75 58.66 7 23.15 7 40.9 37.75"/><polygon class="cls-1" points="30.82 41.41 25.23 29.54 25.11 35.38 19.27 35.17 30.82 41.41"/><polygon class="cls-1" points="26.82 51.09 14.47 46.65 18.51 50.86 14.24 54.84 26.82 51.09"/><polygon class="cls-1" points="30.83 60.77 18.95 66.36 24.79 66.48 24.59 72.31 30.83 60.77"/><polygon class="cls-1" points="40.51 64.77 36.06 77.12 40.28 73.08 44.26 77.35 40.51 64.77"/><polygon class="cls-1" points="50.18 60.76 55.77 72.63 55.89 66.8 61.73 67 50.18 60.76"/><polygon class="cls-1" points="54.18 51.08 66.53 55.52 62.49 51.31 66.76 47.33 54.18 51.08"/><polygon class="cls-1" points="50.17 41.41 62.05 35.81 56.21 35.69 56.41 29.86 50.17 41.41"/></svg>