<svg id="Layer_1" data-name="Layer 1" xmlns="http://www.w3.org/2000/svg" viewBox="0 0 46 46"><defs><style>.cls-1,.cls-2{fill:none;stroke:#000;}.cls-1{stroke-linecap:round;stroke-linejoin:round;}.cls-2{stroke-miterlimit:10;}</style></defs><title>Untitled-4</title><rect class="cls-1" x="0.5" y="0.5" width="45" height="45"/><path class="cls-2" d="M24.27,21.88H22.4a6.55,6.55,0,0,0-5.32,2.73V11.25A1.25,1.25,0,0,0,15.83,10H14.58a1.26,1.26,0,0,0-1.25,1.25v22.5A1.26,1.26,0,0,0,14.58,35h1.25a1.25,1.25,0,0,0,1.25-1.25V32.26A6.56,6.56,0,0,0,22.4,35h1.87a6.56,6.56,0,0,0,0-13.12Z" transform="translate(0.92 1)"/><circle class="cls-2" cx="24" cy="29.75" r="3.75"/></svg>