<?xml version="1.0" encoding="utf-8"?>
<!-- Generator: Adobe Illustrator 24.2.0, SVG Export Plug-In . SVG Version: 6.00 Build 0)  -->
<svg version="1.1" id="Layer_1" xmlns="http://www.w3.org/2000/svg" xmlns:xlink="http://www.w3.org/1999/xlink" x="0px" y="0px"
	 viewBox="0 0 1920 1200" style="enable-background:new 0 0 1920 1200;" xml:space="preserve">
<style type="text/css">
	.st0{fill:#010101;stroke:#FFFFFF;stroke-linecap:round;stroke-linejoin:round;stroke-miterlimit:10;}
	.st1{fill:#010101;stroke:#FFFFFF;stroke-miterlimit:10;}
</style>
<rect x="937.24" y="577.8" class="st0" width="45" height="45"/>
<g>
	<path class="st1" d="M961.93,600.18h-1.88c-2.19,0-4.12,1.09-5.31,2.74v-13.36c0-0.69-0.56-1.25-1.25-1.25h-1.25
		c-0.69,0-1.25,0.56-1.25,1.25v22.5c0,0.69,0.56,1.25,1.25,1.25h1.25c0.69,0,1.25-0.56,1.25-1.25v-1.49
		c1.19,1.65,3.12,2.74,5.31,2.74h1.88c3.62,0,6.56-2.94,6.56-6.56C968.49,603.11,965.55,600.18,961.93,600.18z"/>
	<circle class="st1" cx="960.74" cy="607.05" r="3.75"/>
</g>
</svg>
